<svg xmlns="http://www.w3.org/2000/svg" width="11" height="11" viewBox="0 0 11 11"><g><g><path d="M10.727 5.063L6.827.999a.575.575 0 0 0-.836 0l-.354.37a.624.624 0 0 0-.173.435c0 .165.061.324.173.44L7.912 4.62H.683a.59.59 0 0 0-.583.606v.521c0 .34.257.632.583.632h7.255L5.637 8.77a.615.615 0 0 0-.173.43.62.62 0 0 0 .173.434L5.99 10A.575.575 0 0 0 6.827 10l3.9-4.063A.626.626 0 0 0 10.9 5.5a.624.624 0 0 0-.173-.437z"/><path fill="#fe7901" d="M10.727 5.063L6.827.999a.575.575 0 0 0-.836 0l-.354.37a.624.624 0 0 0-.173.435c0 .165.061.324.173.44L7.912 4.62H.683a.59.59 0 0 0-.583.606v.521c0 .34.257.632.583.632h7.255L5.637 8.77a.615.615 0 0 0-.173.43.62.62 0 0 0 .173.434L5.99 10A.575.575 0 0 0 6.827 10l3.9-4.063A.626.626 0 0 0 10.9 5.5a.624.624 0 0 0-.173-.437z"/></g></g></svg>