<svg xmlns="http://www.w3.org/2000/svg" width="30" height="30" viewBox="0 0 30 30"><g><g><path d="M30.036 17.497v9.377A3.131 3.131 0 0 1 26.905 30H4.358a3.132 3.132 0 0 1-3.132-3.126v-9.377zm-10.882-8.91L14.077 9.74 10.15 3.972l4.687-1.11zm-6.389 1.45L7.681 11.19 3.795 5.477 8.847 4.28zm17.18-4.094a.624.624 0 0 1-.396.286l-3.06.695-3.994-5.876 4.21-.998c.993-.226 2 .392 2.245 1.373l1.066 4.036a.63.63 0 0 1-.07.484zm-4.768 1.278l-4.686 1.064-4.324-5.738 5.025-1.19zm-12.725 4.026l-2.004 5H5.534l2.004-5zm6.263 0l-2.004 5h-4.914l2.004-5zm11.321.625v4.376h-5.713l2.004-5.001h3.083c.347 0 .626.279.626.625zm-5.058-.625l-2.005 5H18.06l2.004-5zm-18.607.24l-.306.07-1.88 4.69H1.226v-3.354l-1.16-4.58a1.858 1.858 0 0 1 .221-1.438 1.866 1.866 0 0 1 1.185-.847l1.02-.241z"/><path fill="#3e505e" d="M30.036 17.497v9.377A3.131 3.131 0 0 1 26.905 30H4.358a3.132 3.132 0 0 1-3.132-3.126v-9.377zm-10.882-8.91L14.077 9.74 10.15 3.972l4.687-1.11zm-6.389 1.45L7.681 11.19 3.795 5.477 8.847 4.28zm17.18-4.094a.624.624 0 0 1-.396.286l-3.06.695-3.994-5.876 4.21-.998c.993-.226 2 .392 2.245 1.373l1.066 4.036a.63.63 0 0 1-.07.484zm-4.768 1.278l-4.686 1.064-4.324-5.738 5.025-1.19zm-12.725 4.026l-2.004 5H5.534l2.004-5zm6.263 0l-2.004 5h-4.914l2.004-5zm11.321.625v4.376h-5.713l2.004-5.001h3.083c.347 0 .626.279.626.625zm-5.058-.625l-2.005 5H18.06l2.004-5zm-18.607.24l-.306.07-1.88 4.69H1.226v-3.354l-1.16-4.58a1.858 1.858 0 0 1 .221-1.438 1.866 1.866 0 0 1 1.185-.847l1.02-.241z"/></g></g></svg>