<svg xmlns="http://www.w3.org/2000/svg" width="12" height="20" viewBox="0 0 12 20"><g><g><path d="M11.187 9.465L2.225.424a.745.745 0 0 0-1.062.002.766.766 0 0 0 .001 1.074l8.429 8.504-8.43 8.503a.766.766 0 0 0 0 1.074.745.745 0 0 0 1.062.002l8.962-9.041a.764.764 0 0 0 0-1.077z"/><path fill="#3e505e" d="M11.187 9.465L2.225.424a.745.745 0 0 0-1.062.002.766.766 0 0 0 .001 1.074l8.429 8.504-8.43 8.503a.766.766 0 0 0 0 1.074.745.745 0 0 0 1.062.002l8.962-9.041a.764.764 0 0 0 0-1.077z"/></g></g></svg>