<svg xmlns="http://www.w3.org/2000/svg" width="11" height="20" viewBox="0 0 11 20"><g><g><path d="M.782 9.465L9.744.424a.745.745 0 0 1 1.062.002.766.766 0 0 1-.001 1.074l-8.429 8.504 8.429 8.503a.766.766 0 0 1 .001 1.074.744.744 0 0 1-1.062.002L.782 10.542a.764.764 0 0 1 0-1.077z"/><path fill="#3e505e" d="M.782 9.465L9.744.424a.745.745 0 0 1 1.062.002.766.766 0 0 1-.001 1.074l-8.429 8.504 8.429 8.503a.766.766 0 0 1 .001 1.074.744.744 0 0 1-1.062.002L.782 10.542a.764.764 0 0 1 0-1.077z"/></g></g></svg>